<svg xmlns="http://www.w3.org/2000/svg" width="32" height="32" viewBox="0 0 32 32"><g transform="translate(-1270.936 -2305.619)"><path fill="#f66" fill-rule="evenodd" d="m 1286.9359,2311.1186 v 3 h 16 v -3 z"/><path fill="#fff" fill-rule="evenodd" d="m 1286.9359,2314.1186 v 3 h 16 v -3 z"/><path fill="#f66" fill-rule="evenodd" d="m 1270.9362,2329.1192 v 3 h 32 v -3 z"/><path fill="#ff5959" fill-rule="evenodd" d="m 1286.9359,2312.6186 v 1.5 h 16 v -1.5 z"/><path fill="#f66" fill-rule="evenodd" d="m 1286.9359,2317.1186 v 3 h 16 v -3 z"/><path fill="#fff" fill-rule="evenodd" d="m 1286.9359,2320.1186 v 3 h 16 v -3 z"/><path fill="#f66" fill-rule="evenodd" d="m 1270.9362,2323.1192 v 3 h 32 v -3 z"/><path fill="#fff" fill-rule="evenodd" d="m 1270.9362,2326.1192 v 3 h 16 16 v -3 h -16 z"/><path fill="#5497d9" fill-rule="evenodd" d="m 1270.9362,2311.1192 v 12 h 16 v -12 z"/><path fill="#fff" d="m 1418.8036,1970.5409 -0.8204,-0.4114 -0.6531,0.6447 0.1378,-0.9073 -0.815,-0.4219 0.9055,-0.1493 0.1493,-0.9055 0.4219,0.815 0.9073,-0.1378 -0.6447,0.6531 z" transform="rotate(9.141 -7731.754 5442.645) scale(.47069)"/><path fill="#fff" d="m 1418.8036,1970.5409 -0.8204,-0.4114 -0.6531,0.6447 0.1378,-0.9073 -0.815,-0.4219 0.9055,-0.1493 0.1493,-0.9055 0.4219,0.815 0.9073,-0.1378 -0.6447,0.6531 z" transform="rotate(9.141 -7730.817 5454.366) scale(.47069)"/><path fill="#fff" d="m 1418.8036,1970.5409 -0.8204,-0.4114 -0.6531,0.6447 0.1378,-0.9073 -0.815,-0.4219 0.9055,-0.1493 0.1493,-0.9055 0.4219,0.815 0.9073,-0.1378 -0.6447,0.6531 z" transform="rotate(9.141 -7732.69 5430.925) scale(.47069)"/><path fill="#fff" d="m 1418.8036,1970.5409 -0.8204,-0.4114 -0.6531,0.6447 0.1378,-0.9073 -0.815,-0.4219 0.9055,-0.1493 0.1493,-0.9055 0.4219,0.815 0.9073,-0.1378 -0.6447,0.6531 z" transform="rotate(9.141 -7733.628 5419.204) scale(.47069)"/><path fill="#fff" d="m 1418.8036,1970.5409 -0.8204,-0.4114 -0.6531,0.6447 0.1378,-0.9073 -0.815,-0.4219 0.9055,-0.1493 0.1493,-0.9055 0.4219,0.815 0.9073,-0.1378 -0.6447,0.6531 z" transform="rotate(9.141 -7734.565 5407.484) scale(.47069)"/><path fill="#fff" d="m 1418.8036,1970.5409 -0.8204,-0.4114 -0.6531,0.6447 0.1378,-0.9073 -0.815,-0.4219 0.9055,-0.1493 0.1493,-0.9055 0.4219,0.815 0.9073,-0.1378 -0.6447,0.6531 z" transform="rotate(9.141 -7728.006 5489.527) scale(.47069)"/><path fill="#fff" d="m 1418.8036,1970.5409 -0.8204,-0.4114 -0.6531,0.6447 0.1378,-0.9073 -0.815,-0.4219 0.9055,-0.1493 0.1493,-0.9055 0.4219,0.815 0.9073,-0.1378 -0.6447,0.6531 z" transform="rotate(9.141 -7728.943 5477.806) scale(.47069)"/><path fill="#fff" d="m 1418.8036,1970.5409 -0.8204,-0.4114 -0.6531,0.6447 0.1378,-0.9073 -0.815,-0.4219 0.9055,-0.1493 0.1493,-0.9055 0.4219,0.815 0.9073,-0.1378 -0.6447,0.6531 z" transform="rotate(9.141 -7729.88 5466.086) scale(.47069)"/><path fill="#fff" d="m 1418.8036,1970.5409 -0.8204,-0.4114 -0.6531,0.6447 0.1378,-0.9073 -0.815,-0.4219 0.9055,-0.1493 0.1493,-0.9055 0.4219,0.815 0.9073,-0.1378 -0.6447,0.6531 z" transform="rotate(9.141 -7723.446 5436.084) scale(.47069)"/><path fill="#fff" d="m 1418.8036,1970.5409 -0.8204,-0.4114 -0.6531,0.6447 0.1378,-0.9073 -0.815,-0.4219 0.9055,-0.1493 0.1493,-0.9055 0.4219,0.815 0.9073,-0.1378 -0.6447,0.6531 z" transform="rotate(9.141 -7722.509 5447.805) scale(.47069)"/><path fill="#fff" d="m 1418.8036,1970.5409 -0.8204,-0.4114 -0.6531,0.6447 0.1378,-0.9073 -0.815,-0.4219 0.9055,-0.1493 0.1493,-0.9055 0.4219,0.815 0.9073,-0.1378 -0.6447,0.6531 z" transform="rotate(9.141 -7724.383 5424.364) scale(.47069)"/><path fill="#fff" d="m 1418.8036,1970.5409 -0.8204,-0.4114 -0.6531,0.6447 0.1378,-0.9073 -0.815,-0.4219 0.9055,-0.1493 0.1493,-0.9055 0.4219,0.815 0.9073,-0.1378 -0.6447,0.6531 z" transform="rotate(9.141 -7725.32 5412.643) scale(.47069)"/><path fill="#fff" d="m 1418.8036,1970.5409 -0.8204,-0.4114 -0.6531,0.6447 0.1378,-0.9073 -0.815,-0.4219 0.9055,-0.1493 0.1493,-0.9055 0.4219,0.815 0.9073,-0.1378 -0.6447,0.6531 z" transform="rotate(9.141 -7719.698 5482.966) scale(.47069)"/><path fill="#fff" d="m 1418.8036,1970.5409 -0.8204,-0.4114 -0.6531,0.6447 0.1378,-0.9073 -0.815,-0.4219 0.9055,-0.1493 0.1493,-0.9055 0.4219,0.815 0.9073,-0.1378 -0.6447,0.6531 z" transform="rotate(9.141 -7720.635 5471.245) scale(.47069)"/><path fill="#fff" d="m 1418.8036,1970.5409 -0.8204,-0.4114 -0.6531,0.6447 0.1378,-0.9073 -0.815,-0.4219 0.9055,-0.1493 0.1493,-0.9055 0.4219,0.815 0.9073,-0.1378 -0.6447,0.6531 z" transform="rotate(9.141 -7721.572 5459.525) scale(.47069)"/><path fill="#fff" d="m 1418.8036,1970.5409 -0.8204,-0.4114 -0.6531,0.6447 0.1378,-0.9073 -0.815,-0.4219 0.9055,-0.1493 0.1493,-0.9055 0.4219,0.815 0.9073,-0.1378 -0.6447,0.6531 z" transform="rotate(9.141 -7714.2 5441.242) scale(.47069)"/><path fill="#fff" d="m 1418.8036,1970.5409 -0.8204,-0.4114 -0.6531,0.6447 0.1378,-0.9073 -0.815,-0.4219 0.9055,-0.1493 0.1493,-0.9055 0.4219,0.815 0.9073,-0.1378 -0.6447,0.6531 z" transform="rotate(9.141 -7713.264 5452.963) scale(.47069)"/><path fill="#fff" d="m 1418.8036,1970.5409 -0.8204,-0.4114 -0.6531,0.6447 0.1378,-0.9073 -0.815,-0.4219 0.9055,-0.1493 0.1493,-0.9055 0.4219,0.815 0.9073,-0.1378 -0.6447,0.6531 z" transform="rotate(9.141 -7715.138 5429.522) scale(.47069)"/><path fill="#fff" d="m 1418.8036,1970.5409 -0.8204,-0.4114 -0.6531,0.6447 0.1378,-0.9073 -0.815,-0.4219 0.9055,-0.1493 0.1493,-0.9055 0.4219,0.815 0.9073,-0.1378 -0.6447,0.6531 z" transform="rotate(9.141 -7716.075 5417.801) scale(.47069)"/><path fill="#fff" d="m 1418.8036,1970.5409 -0.8204,-0.4114 -0.6531,0.6447 0.1378,-0.9073 -0.815,-0.4219 0.9055,-0.1493 0.1493,-0.9055 0.4219,0.815 0.9073,-0.1378 -0.6447,0.6531 z" transform="rotate(9.141 -7710.453 5488.124) scale(.47069)"/><path fill="#fff" d="m 1418.8036,1970.5409 -0.8204,-0.4114 -0.6531,0.6447 0.1378,-0.9073 -0.815,-0.4219 0.9055,-0.1493 0.1493,-0.9055 0.4219,0.815 0.9073,-0.1378 -0.6447,0.6531 z" transform="rotate(9.141 -7711.39 5476.403) scale(.47069)"/><path fill="#fff" d="m 1418.8036,1970.5409 -0.8204,-0.4114 -0.6531,0.6447 0.1378,-0.9073 -0.815,-0.4219 0.9055,-0.1493 0.1493,-0.9055 0.4219,0.815 0.9073,-0.1378 -0.6447,0.6531 z" transform="rotate(9.141 -7712.327 5464.683) scale(.47069)"/><path fill="#fff" d="m 1418.8036,1970.5409 -0.8204,-0.4114 -0.6531,0.6447 0.1378,-0.9073 -0.815,-0.4219 0.9055,-0.1493 0.1493,-0.9055 0.4219,0.815 0.9073,-0.1378 -0.6447,0.6531 z" transform="rotate(9.141 -7714.2 5441.242) scale(.47069)"/><path fill="#fff" d="m 1418.8036,1970.5409 -0.8204,-0.4114 -0.6531,0.6447 0.1378,-0.9073 -0.815,-0.4219 0.9055,-0.1493 0.1493,-0.9055 0.4219,0.815 0.9073,-0.1378 -0.6447,0.6531 z" transform="rotate(9.141 -7713.264 5452.963) scale(.47069)"/><path fill="#fff" d="m 1418.8036,1970.5409 -0.8204,-0.4114 -0.6531,0.6447 0.1378,-0.9073 -0.815,-0.4219 0.9055,-0.1493 0.1493,-0.9055 0.4219,0.815 0.9073,-0.1378 -0.6447,0.6531 z" transform="rotate(9.141 -7715.138 5429.522) scale(.47069)"/><path fill="#fff" d="m 1418.8036,1970.5409 -0.8204,-0.4114 -0.6531,0.6447 0.1378,-0.9073 -0.815,-0.4219 0.9055,-0.1493 0.1493,-0.9055 0.4219,0.815 0.9073,-0.1378 -0.6447,0.6531 z" transform="rotate(9.141 -7716.075 5417.801) scale(.47069)"/><path fill="#fff" d="m 1418.8036,1970.5409 -0.8204,-0.4114 -0.6531,0.6447 0.1378,-0.9073 -0.815,-0.4219 0.9055,-0.1493 0.1493,-0.9055 0.4219,0.815 0.9073,-0.1378 -0.6447,0.6531 z" transform="rotate(9.141 -7717.012 5406.081) scale(.47069)"/><path fill="#fff" d="m 1418.8036,1970.5409 -0.8204,-0.4114 -0.6531,0.6447 0.1378,-0.9073 -0.815,-0.4219 0.9055,-0.1493 0.1493,-0.9055 0.4219,0.815 0.9073,-0.1378 -0.6447,0.6531 z" transform="rotate(9.141 -7710.453 5488.124) scale(.47069)"/><path fill="#fff" d="m 1418.8036,1970.5409 -0.8204,-0.4114 -0.6531,0.6447 0.1378,-0.9073 -0.815,-0.4219 0.9055,-0.1493 0.1493,-0.9055 0.4219,0.815 0.9073,-0.1378 -0.6447,0.6531 z" transform="rotate(9.141 -7711.39 5476.403) scale(.47069)"/><path fill="#fff" d="m 1418.8036,1970.5409 -0.8204,-0.4114 -0.6531,0.6447 0.1378,-0.9073 -0.815,-0.4219 0.9055,-0.1493 0.1493,-0.9055 0.4219,0.815 0.9073,-0.1378 -0.6447,0.6531 z" transform="rotate(9.141 -7712.327 5464.683) scale(.47069)"/><path fill="#fff" d="m 1418.8036,1970.5409 -0.8204,-0.4114 -0.6531,0.6447 0.1378,-0.9073 -0.815,-0.4219 0.9055,-0.1493 0.1493,-0.9055 0.4219,0.815 0.9073,-0.1378 -0.6447,0.6531 z" transform="rotate(9.141 -7705.892 5434.68) scale(.47069)"/><path fill="#fff" d="m 1418.8036,1970.5409 -0.8204,-0.4114 -0.6531,0.6447 0.1378,-0.9073 -0.815,-0.4219 0.9055,-0.1493 0.1493,-0.9055 0.4219,0.815 0.9073,-0.1378 -0.6447,0.6531 z" transform="rotate(9.141 -7704.955 5446.402) scale(.47069)"/><path fill="#fff" d="m 1418.8036,1970.5409 -0.8204,-0.4114 -0.6531,0.6447 0.1378,-0.9073 -0.815,-0.4219 0.9055,-0.1493 0.1493,-0.9055 0.4219,0.815 0.9073,-0.1378 -0.6447,0.6531 z" transform="rotate(9.141 -7706.83 5422.96) scale(.47069)"/><path fill="#fff" d="m 1418.8036,1970.5409 -0.8204,-0.4114 -0.6531,0.6447 0.1378,-0.9073 -0.815,-0.4219 0.9055,-0.1493 0.1493,-0.9055 0.4219,0.815 0.9073,-0.1378 -0.6447,0.6531 z" transform="rotate(9.141 -7707.766 5411.24) scale(.47069)"/><path fill="#fff" d="m 1418.8036,1970.5409 -0.8204,-0.4114 -0.6531,0.6447 0.1378,-0.9073 -0.815,-0.4219 0.9055,-0.1493 0.1493,-0.9055 0.4219,0.815 0.9073,-0.1378 -0.6447,0.6531 z" transform="rotate(9.141 -7702.144 5481.563) scale(.47069)"/><path fill="#fff" d="m 1418.8036,1970.5409 -0.8204,-0.4114 -0.6531,0.6447 0.1378,-0.9073 -0.815,-0.4219 0.9055,-0.1493 0.1493,-0.9055 0.4219,0.815 0.9073,-0.1378 -0.6447,0.6531 z" transform="rotate(9.141 -7703.081 5469.841) scale(.47069)"/><path fill="#fff" d="m 1418.8036,1970.5409 -0.8204,-0.4114 -0.6531,0.6447 0.1378,-0.9073 -0.815,-0.4219 0.9055,-0.1493 0.1493,-0.9055 0.4219,0.815 0.9073,-0.1378 -0.6447,0.6531 z" transform="rotate(9.141 -7704.018 5458.121) scale(.47069)"/><path fill="#fff" d="m 1418.8036,1970.5409 -0.8204,-0.4114 -0.6531,0.6447 0.1378,-0.9073 -0.815,-0.4219 0.9055,-0.1493 0.1493,-0.9055 0.4219,0.815 0.9073,-0.1378 -0.6447,0.6531 z" transform="rotate(9.141 -7749.307 5444.049) scale(.47069)"/><path fill="#fff" d="m 1418.8036,1970.5409 -0.8204,-0.4114 -0.6531,0.6447 0.1378,-0.9073 -0.815,-0.4219 0.9055,-0.1493 0.1493,-0.9055 0.4219,0.815 0.9073,-0.1378 -0.6447,0.6531 z" transform="rotate(9.141 -7748.37 5455.77) scale(.47069)"/><path fill="#fff" d="m 1418.8036,1970.5409 -0.8204,-0.4114 -0.6531,0.6447 0.1378,-0.9073 -0.815,-0.4219 0.9055,-0.1493 0.1493,-0.9055 0.4219,0.815 0.9073,-0.1378 -0.6447,0.6531 z" transform="rotate(9.141 -7750.244 5432.329) scale(.47069)"/><path fill="#fff" d="m 1418.8036,1970.5409 -0.8204,-0.4114 -0.6531,0.6447 0.1378,-0.9073 -0.815,-0.4219 0.9055,-0.1493 0.1493,-0.9055 0.4219,0.815 0.9073,-0.1378 -0.6447,0.6531 z" transform="rotate(9.141 -7751.181 5420.608) scale(.47069)"/><path fill="#fff" d="m 1418.8036,1970.5409 -0.8204,-0.4114 -0.6531,0.6447 0.1378,-0.9073 -0.815,-0.4219 0.9055,-0.1493 0.1493,-0.9055 0.4219,0.815 0.9073,-0.1378 -0.6447,0.6531 z" transform="rotate(9.141 -7752.118 5408.888) scale(.47069)"/><path fill="#fff" d="m 1418.8036,1970.5409 -0.8204,-0.4114 -0.6531,0.6447 0.1378,-0.9073 -0.815,-0.4219 0.9055,-0.1493 0.1493,-0.9055 0.4219,0.815 0.9073,-0.1378 -0.6447,0.6531 z" transform="rotate(9.141 -7745.559 5490.93) scale(.47069)"/><path fill="#fff" d="m 1418.8036,1970.5409 -0.8204,-0.4114 -0.6531,0.6447 0.1378,-0.9073 -0.815,-0.4219 0.9055,-0.1493 0.1493,-0.9055 0.4219,0.815 0.9073,-0.1378 -0.6447,0.6531 z" transform="rotate(9.141 -7746.496 5479.21) scale(.47069)"/><path fill="#fff" d="m 1418.8036,1970.5409 -0.8204,-0.4114 -0.6531,0.6447 0.1378,-0.9073 -0.815,-0.4219 0.9055,-0.1493 0.1493,-0.9055 0.4219,0.815 0.9073,-0.1378 -0.6447,0.6531 z" transform="rotate(9.141 -7747.433 5467.49) scale(.47069)"/><path fill="#fff" d="m 1418.8036,1970.5409 -0.8204,-0.4114 -0.6531,0.6447 0.1378,-0.9073 -0.815,-0.4219 0.9055,-0.1493 0.1493,-0.9055 0.4219,0.815 0.9073,-0.1378 -0.6447,0.6531 z" transform="rotate(9.141 -7740.999 5437.487) scale(.47069)"/><path fill="#fff" d="m 1418.8036,1970.5409 -0.8204,-0.4114 -0.6531,0.6447 0.1378,-0.9073 -0.815,-0.4219 0.9055,-0.1493 0.1493,-0.9055 0.4219,0.815 0.9073,-0.1378 -0.6447,0.6531 z" transform="rotate(9.141 -7740.062 5449.208) scale(.47069)"/><path fill="#fff" d="m 1418.8036,1970.5409 -0.8204,-0.4114 -0.6531,0.6447 0.1378,-0.9073 -0.815,-0.4219 0.9055,-0.1493 0.1493,-0.9055 0.4219,0.815 0.9073,-0.1378 -0.6447,0.6531 z" transform="rotate(9.141 -7741.936 5425.767) scale(.47069)"/><path fill="#fff" d="m 1418.8036,1970.5409 -0.8204,-0.4114 -0.6531,0.6447 0.1378,-0.9073 -0.815,-0.4219 0.9055,-0.1493 0.1493,-0.9055 0.4219,0.815 0.9073,-0.1378 -0.6447,0.6531 z" transform="rotate(9.141 -7742.873 5414.046) scale(.47069)"/><path fill="#fff" d="m 1418.8036,1970.5409 -0.8204,-0.4114 -0.6531,0.6447 0.1378,-0.9073 -0.815,-0.4219 0.9055,-0.1493 0.1493,-0.9055 0.4219,0.815 0.9073,-0.1378 -0.6447,0.6531 z" transform="rotate(9.141 -7737.251 5484.37) scale(.47069)"/><path fill="#fff" d="m 1418.8036,1970.5409 -0.8204,-0.4114 -0.6531,0.6447 0.1378,-0.9073 -0.815,-0.4219 0.9055,-0.1493 0.1493,-0.9055 0.4219,0.815 0.9073,-0.1378 -0.6447,0.6531 z" transform="rotate(9.141 -7738.188 5472.648) scale(.47069)"/><path fill="#fff" d="m 1418.8036,1970.5409 -0.8204,-0.4114 -0.6531,0.6447 0.1378,-0.9073 -0.815,-0.4219 0.9055,-0.1493 0.1493,-0.9055 0.4219,0.815 0.9073,-0.1378 -0.6447,0.6531 z" transform="rotate(9.141 -7739.125 5460.928) scale(.47069)"/><path fill="#fff" d="m 1418.8036,1970.5409 -0.8204,-0.4114 -0.6531,0.6447 0.1378,-0.9073 -0.815,-0.4219 0.9055,-0.1493 0.1493,-0.9055 0.4219,0.815 0.9073,-0.1378 -0.6447,0.6531 z" transform="rotate(9.141 -7696.647 5439.839) scale(.47069)"/><path fill="#fff" d="m 1418.8036,1970.5409 -0.8204,-0.4114 -0.6531,0.6447 0.1378,-0.9073 -0.815,-0.4219 0.9055,-0.1493 0.1493,-0.9055 0.4219,0.815 0.9073,-0.1378 -0.6447,0.6531 z" transform="rotate(9.141 -7695.71 5451.56) scale(.47069)"/><path fill="#fff" d="m 1418.8036,1970.5409 -0.8204,-0.4114 -0.6531,0.6447 0.1378,-0.9073 -0.815,-0.4219 0.9055,-0.1493 0.1493,-0.9055 0.4219,0.815 0.9073,-0.1378 -0.6447,0.6531 z" transform="rotate(9.141 -7697.584 5428.119) scale(.47069)"/><path fill="#fff" d="m 1418.8036,1970.5409 -0.8204,-0.4114 -0.6531,0.6447 0.1378,-0.9073 -0.815,-0.4219 0.9055,-0.1493 0.1493,-0.9055 0.4219,0.815 0.9073,-0.1378 -0.6447,0.6531 z" transform="rotate(9.141 -7698.521 5416.398) scale(.47069)"/><path fill="#fff" d="m 1418.8036,1970.5409 -0.8204,-0.4114 -0.6531,0.6447 0.1378,-0.9073 -0.815,-0.4219 0.9055,-0.1493 0.1493,-0.9055 0.4219,0.815 0.9073,-0.1378 -0.6447,0.6531 z" transform="rotate(9.141 -7699.458 5404.678) scale(.47069)"/><path fill="#fff" d="m 1418.8036,1970.5409 -0.8204,-0.4114 -0.6531,0.6447 0.1378,-0.9073 -0.815,-0.4219 0.9055,-0.1493 0.1493,-0.9055 0.4219,0.815 0.9073,-0.1378 -0.6447,0.6531 z" transform="rotate(9.141 -7692.9 5486.72) scale(.47069)"/><path fill="#fff" d="m 1418.8036,1970.5409 -0.8204,-0.4114 -0.6531,0.6447 0.1378,-0.9073 -0.815,-0.4219 0.9055,-0.1493 0.1493,-0.9055 0.4219,0.815 0.9073,-0.1378 -0.6447,0.6531 z" transform="rotate(9.141 -7693.836 5475) scale(.47069)"/><path fill="#fff" d="m 1418.8036,1970.5409 -0.8204,-0.4114 -0.6531,0.6447 0.1378,-0.9073 -0.815,-0.4219 0.9055,-0.1493 0.1493,-0.9055 0.4219,0.815 0.9073,-0.1378 -0.6447,0.6531 z" transform="rotate(9.141 -7694.773 5463.28) scale(.47069)"/><path fill="#ff5959" fill-rule="evenodd" d="M1286.9359 2318.6186v1.5h16v-1.5zM1270.9362 2324.6192v1.5h32v-1.5zM1270.9362 2330.6192v1.5h32v-1.5z"/><path fill="#ebebeb" fill-rule="evenodd" d="M1270.9362 2327.6192v1.5h32v-1.5zM1286.9359 2315.6186v1.5h16v-1.5zM1286.9359 2321.6186v1.5h16v-1.5z"/><path fill="#ff5959" fill-rule="evenodd" d="m 1286.9359,2311.1186 v 3 h 0.5 v -3 z"/><path fill="#ebebeb" fill-rule="evenodd" d="m 1286.9359,2314.1186 v 3 h 0.5 v -3 z"/><g transform="translate(0 6)"><path fill="#ff5959" fill-rule="evenodd" d="m 1286.9359,2311.1186 v 3 h 0.5 v -3 z"/><path fill="#ebebeb" fill-rule="evenodd" d="m 1286.9359,2314.1186 v 3 h 0.5 v -3 z"/></g></g></svg>